# xmcd
#
# Track frame offsets: 
#        150
#        34604
#        57182
#        70644
#        82014
#        94855
#        107790
#        118904
#        134401
#        144990
#        156799
#        166829
#        176706
#        186454
#        200734
#        214618
#        230773
#        239640
#
# Disc length: 3423 seconds
#
# Revision: 3
# Processed by: cddbd v1.5.2PL0 Copyright (c) Steve Scherf et al.
# Submitted via: ExactAudioCopy v0.99pb3
#
DISCID=0b0d5d12
DTITLE=Fleetwood Mac - Live At The BBC [CD1)
DYEAR=1995
DGENRE=Blues Rock
TTITLE0=Rattlesnake Shake
TTITLE1=Sandy Mary
TTITLE2=Believe My Time Ain't Long
TTITLE3=Although The Sun Is Shining
TTITLE4=Only You
TTITLE5=You Never Know What You're Missing
TTITLE6=Oh Well
TTITLE7=Can't Believe You Wanna Leave
TTITLE8=Jenny Lee
TTITLE9=Heavenly
TTITLE10=When Will I Be Loved?
TTITLE11=When I See My Baby
TTITLE12=Buddy's Song
TTITLE13=Honey Hush
TTITLE14=Preachin'
TTITLE15=Jumping At Shadows
TTITLE16=Preachin' Blues
TTITLE17=Need Your Love So Bad
EXTD=
EXTT0=
EXTT1=
EXTT2=
EXTT3=
EXTT4=
EXTT5=
EXTT6=
EXTT7=
EXTT8=
EXTT9=
EXTT10=
EXTT11=
EXTT12=
EXTT13=
EXTT14=
EXTT15=
EXTT16=
EXTT17=
PLAYORDER=
